<svg xmlns="http://www.w3.org/2000/svg" height="40" viewBox="0 96 960 960" width="40"><path d="M547 969.333H412.879q-11.584 0-20.545-7.452-8.962-7.452-10.5-19.381l-14.667-97.833q-9.667-3.167-28.417-13.75-18.75-10.584-41.084-25.084l-89.833 40.5q-11.54 5-23.08 1.052t-17.42-14.885L100 714q-6-10.333-3.084-22.013 2.917-11.679 12.251-18.653l82.333-61q-1.667-8.142-2-17.488-.333-9.346-.333-18.846 0-7.667.416-17.833.417-10.167 2.084-19.834l-82.334-60.288q-9.5-7.212-12.666-18.824Q93.5 447.608 100 437.333l67.275-118.304q6.391-10.696 17.827-14.529 11.436-3.833 22.731 1.167l91 40.833q13.333-11 31.584-21.5 18.25-10.5 36.75-16.833l14.667-99.667q1.538-11.595 10.464-19.048Q401.223 182 413 182h134.121q11.584 0 20.518 7.476 8.933 7.476 10.861 19.024l14.666 98.167q17.334 6.5 35.751 16.916Q647.334 334 661 346.5l91.713-40.874q10.787-4.959 22.139-1.043 11.352 3.917 17.815 14.584L860 436.667q6.5 10.275 3.667 22.22-2.834 11.946-12.862 19.067l-83.972 60.27q1.334 9.109 1.834 18.526t.5 19.25q0 9.833-.5 19.175t-2 18.024l83.547 60.094q9.619 7.13 12.536 18.851t-3.25 22.023l-67.333 118.5q-6.333 11-17.822 14.583-11.488 3.583-22.511-1.417L661 805.166q-13.147 11.076-30.407 21.455-17.26 10.379-37.427 18.046L578.5 942.5q-1.872 11.929-10.798 19.381-8.925 7.452-20.702 7.452ZM479.397 706q53.793 0 91.781-38.034 37.989-38.033 37.989-92 0-53.966-38.024-91.966-38.024-38-91.976-38-54.5 0-92.25 38.034-37.75 38.033-37.75 92 0 53.966 37.75 91.966 37.75 38 92.48 38Zm-.23-63.333q-28 0-47.334-19.5Q412.5 603.667 412.5 576t19.333-47.167q19.334-19.5 47.334-19.5 27.666 0 47.166 19.5 19.5 19.5 19.5 47.167t-19.5 47.167q-19.5 19.5-47.166 19.5Zm.666-67.167ZM437.662 906h83.961l14.544-110.5q31.723-8.043 59.057-23.878 27.333-15.835 50.443-39.288l104.167 45L789 707.496l-92-67.829q3.834-16 6.334-31.753 2.5-15.754 2.5-31.993 0-16.421-1.917-31.838Q702 528.667 697 512.333L789 444l-38.5-70-105 45.333q-21.5-23.667-49.5-40.5t-59.833-22.667l-13.643-110.833h-84.857l-13.5 110.69q-34 7.81-60.667 23.06T313 419l-103.167-45-39.5 70 91.167 66.833q-4.334 17-6.667 32.713-2.333 15.713-2.333 31.924 0 16.363 2.083 32.03 2.083 15.667 6.417 32.833l-90.667 67.001 39.431 70 103.069-44.667Q337 756.834 364.583 772.5q27.584 15.667 59.584 23.5l13.495 110Z"/></svg>